<?xml version="1.0" encoding="utf-8"?>
<!-- Generator: Adobe Illustrator 19.2.0, SVG Export Plug-In . SVG Version: 6.00 Build 0)  -->
<svg version="1.1" id="Layer_1" xmlns="http://www.w3.org/2000/svg" xmlns:xlink="http://www.w3.org/1999/xlink" x="0px" y="0px"
	 viewBox="0 0 480 247.3" style="enable-background:new 0 0 480 247.3;" xml:space="preserve">
<style type="text/css">
	.st0{fill:none;stroke:#FFFFFF;stroke-width:2;stroke-miterlimit:10;}
	.st1{fill:#FFFFFF;}
	.st2{font-family:'HelveticaNeue-Medium';}
	.st3{font-size:12px;}
	.st4{fill:none;stroke:#FFFFFF;stroke-miterlimit:10;}
	.st5{fill:#FFD723;stroke:#000000;stroke-miterlimit:10;}
</style>
<polyline class="st0" points="55,11.7 55,224.7 451,224.7 "/>
<text transform="matrix(1 0 0 1 17.9839 11.6667)" class="st1 st2 st3">100%</text>
<text transform="matrix(1 0 0 1 24.6562 65)" class="st1 st2 st3">75%</text>
<text transform="matrix(1 0 0 1 24.6562 117.9167)" class="st1 st2 st3">50%</text>
<text transform="matrix(1 0 0 1 24.6562 170.5833)" class="st1 st2 st3">25%</text>
<text transform="matrix(1 0 0 1 31.3281 224.1667)" class="st1 st2 st3">0%</text>
<path class="st4" d="M55.5,103.3"/>
<polyline class="st0" points="55.5,109 99.5,82.7 143.5,86 187.5,77.3 231.5,65 275.5,68 319.5,79.8 363.5,58 407.5,49.3 
	451.5,52.7 "/>
<circle class="st5" cx="143.5" cy="86" r="5.2"/>
<circle class="st5" cx="187.5" cy="77" r="5.2"/>
<circle class="st5" cx="231.5" cy="65" r="5.2"/>
<circle class="st5" cx="275.5" cy="68" r="5.2"/>
<circle class="st5" cx="319.5" cy="80" r="5.2"/>
<circle class="st5" cx="363.5" cy="58" r="5.2"/>
<circle class="st5" cx="407.5" cy="49" r="5.2"/>
<circle class="st5" cx="451.5" cy="53" r="5.2"/>
<circle class="st5" cx="99.5" cy="83" r="5.2"/>
<circle class="st5" cx="55.5" cy="109" r="5.2"/>
</svg>
